<svg width="35" height="28" viewBox="0 0 35 28" fill="none" xmlns="http://www.w3.org/2000/svg">
<path d="M12.408 18.96C12.408 24.368 10.872 26.32 6.232 26.32C1.592 26.32 0.056 24.368 0.056 18.96V9.04C0.056 3.664 1.592 1.68 6.232 1.68C10.872 1.68 12.408 3.664 12.408 9.04V18.96ZM4.6 20.048C4.6 21.328 5.112 21.84 6.232 21.84C7.352 21.84 7.864 21.328 7.864 20.048V8.112C7.864 6.704 7.352 6.16 6.232 6.16C5.112 6.16 4.6 6.704 4.6 8.112V20.048ZM19.2608 1.584V26.416C19.2608 27.344 19.0048 27.6 18.0768 27.6H16.0288C15.1008 27.6 14.8448 27.344 14.8448 26.416V1.584C14.8448 0.655998 15.1008 0.4 16.0288 0.4H18.0768C19.0048 0.4 19.2608 0.655998 19.2608 1.584ZM34.033 18.96C34.033 24.368 32.497 26.32 27.857 26.32C23.217 26.32 21.681 24.368 21.681 18.96V9.04C21.681 3.664 23.217 1.68 27.857 1.68C32.497 1.68 34.033 3.664 34.033 9.04V18.96ZM26.225 20.048C26.225 21.328 26.737 21.84 27.857 21.84C28.977 21.84 29.489 21.328 29.489 20.048V8.112C29.489 6.704 28.977 6.16 27.857 6.16C26.737 6.16 26.225 6.704 26.225 8.112V20.048Z" fill="white"/>
</svg>
