<svg width="46" height="45" viewBox="0 0 46 45" fill="none" xmlns="http://www.w3.org/2000/svg">
<path d="M18.408 25.96C18.408 31.368 16.872 33.32 12.232 33.32C7.592 33.32 6.056 31.368 6.056 25.96V16.04C6.056 10.664 7.592 8.68 12.232 8.68C16.872 8.68 18.408 10.664 18.408 16.04V25.96ZM10.6 27.048C10.6 28.328 11.112 28.84 12.232 28.84C13.352 28.84 13.864 28.328 13.864 27.048V15.112C13.864 13.704 13.352 13.16 12.232 13.16C11.112 13.16 10.6 13.704 10.6 15.112V27.048Z" fill="white"/>
<path d="M39.408 25.96C39.408 31.368 37.872 33.32 33.232 33.32C28.592 33.32 27.056 31.368 27.056 25.96V16.04C27.056 10.664 28.592 8.68 33.232 8.68C37.872 8.68 39.408 10.664 39.408 16.04V25.96ZM31.6 27.048C31.6 28.328 32.112 28.84 33.232 28.84C34.352 28.84 34.864 28.328 34.864 27.048V15.112C34.864 13.704 34.352 13.16 33.232 13.16C32.112 13.16 31.6 13.704 31.6 15.112V27.048Z" fill="white"/>
<path d="M35.058 42.1C32.95 43.29 31.352 43.46 26.762 43.46H18.738C14.148 43.46 12.55 43.29 10.442 42.1L9.218 41.42C8.504 41.012 8.3 40.672 8.3 39.754V37.204C8.3 36.762 8.47 36.592 8.81 36.592C9.014 36.592 9.286 36.728 9.626 36.864L10.306 37.17C13.23 38.496 13.876 38.768 18.738 38.768H26.762C31.624 38.768 32.27 38.496 35.194 37.17L35.874 36.864C36.214 36.728 36.486 36.592 36.69 36.592C37.03 36.592 37.2 36.762 37.2 37.204V39.754C37.2 40.672 36.996 41.012 36.282 41.42L35.058 42.1Z" fill="white"/>
</svg>
