<?xml version="1.0" encoding="UTF-8"?>
<svg id="Lager_1" data-name="Lager 1" xmlns="http://www.w3.org/2000/svg" viewBox="0 0 346.18 358.21">
  <defs>
    <style>
      .cls-1 {
        fill: none;
      }

      .cls-2 {
        fill: #fff;
      }
    </style>
  </defs>
  <path class="cls-2" d="M132.6,187.58c0,48.32-13.72,65.77-55.19,65.77s-55.19-17.44-55.19-65.77v-88.64c0-48.04,13.72-65.77,55.19-65.77s55.19,17.73,55.19,65.77v88.64ZM62.83,197.3c0,11.44,4.57,16.01,14.58,16.01s14.58-4.57,14.58-16.01v-106.65c0-12.58-4.57-17.44-14.58-17.44s-14.58,4.86-14.58,17.44v106.65Z"/>
  <path class="cls-2" d="M324.24,187.58c0,48.32-13.72,65.77-55.19,65.77s-55.19-17.44-55.19-65.77v-88.64c0-48.04,13.72-65.77,55.19-65.77s55.19,17.73,55.19,65.77v88.64ZM254.47,197.3c0,11.44,4.57,16.01,14.58,16.01s14.58-4.57,14.58-16.01v-106.65c0-12.58-4.57-17.44-14.58-17.44s-14.58,4.86-14.58,17.44v106.65Z"/>
  <g>
    <rect class="cls-1" x=".65" y=".06" width="345.53" height="358.14"/>
    <path class="cls-2" d="M281.37,331.8c-18.84,10.63-33.11,12.15-74.13,12.15h-71.7c-41.01,0-55.29-1.52-74.13-12.15l-10.94-6.08c-6.38-3.65-8.2-6.68-8.2-14.89v-22.79c0-3.95,1.52-5.47,4.56-5.47,1.82,0,4.25,1.22,7.29,2.43l6.08,2.73c26.13,11.85,31.9,14.28,75.34,14.28h71.7c43.44,0,49.22-2.43,75.34-14.28l6.08-2.73c3.04-1.22,5.47-2.43,7.29-2.43,3.04,0,4.56,1.52,4.56,5.47v22.79c0,8.2-1.82,11.24-8.2,14.89l-10.94,6.08Z"/>
  </g>
  <rect class="cls-1" x=".65" width="345.53" height="358.14"/>
</svg>