<?xml version="1.0" encoding="UTF-8"?>
<svg id="Lager_1" data-name="Lager 1" xmlns="http://www.w3.org/2000/svg" viewBox="0 0 345.53 358.14">
  <defs>
    <style>
      .cls-1 {
        fill: none;
      }

      .cls-2 {
        fill: #fff;
      }
    </style>
  </defs>
  <rect class="cls-1" width="345.53" height="358.14"/>
  <path class="cls-2" d="M132.33,222.94c0,47.84-13.59,65.1-54.63,65.1s-54.63-17.27-54.63-65.1v-87.75c0-47.55,13.59-65.1,54.63-65.1s54.63,17.55,54.63,65.1v87.75h0ZM63.27,232.57c0,11.32,4.53,15.85,14.44,15.85s14.44-4.53,14.44-15.85v-105.58c0-12.45-4.53-17.27-14.44-17.27s-14.44,4.81-14.44,17.27v105.58ZM192.95,69.25v219.65c0,8.21-2.26,10.47-10.47,10.47h-18.12c-8.21,0-10.47-2.26-10.47-10.47V69.25c0-8.21,2.26-10.47,10.47-10.47h18.12c8.21,0,10.47,2.26,10.47,10.47ZM323.61,222.94c0,47.84-13.59,65.1-54.63,65.1s-54.63-17.27-54.63-65.1v-87.75c0-47.55,13.59-65.1,54.63-65.1s54.63,17.55,54.63,65.1v87.75h0ZM254.55,232.57c0,11.32,4.53,15.85,14.44,15.85s14.44-4.53,14.44-15.85v-105.58c0-12.45-4.53-17.27-14.44-17.27s-14.44,4.81-14.44,17.27v105.58h0Z"/>
</svg>