<?xml version="1.0" encoding="UTF-8"?>
<svg
  id="Lager_1"
  xmlns="http://www.w3.org/2000/svg"
  version="1.1"
  viewBox="0 0 346.2 358.2"
  preserveAspectRatio="xMinYMin meet"
>
  <!-- Generator: Adobe Illustrator 29.6.1, SVG Export Plug-In . SVG Version: 2.1.1 Build 9)  -->
  <defs>
    <style>
      .st0 {
        fill: #fff;
      }
    </style>
  </defs>
  <path class="st0" d="M132.6,187.6c0,48.3-13.7,65.8-55.2,65.8s-55.2-17.4-55.2-65.8v-88.6c0-48,13.7-65.8,55.2-65.8s55.2,17.7,55.2,65.8v88.6h0ZM62.8,197.3c0,11.4,4.6,16,14.6,16s14.6-4.6,14.6-16v-106.7c0-12.6-4.6-17.4-14.6-17.4s-14.6,4.9-14.6,17.4v106.7Z"/>
  <path class="st0" d="M324.2,187.6c0,48.3-13.7,65.8-55.2,65.8s-55.2-17.4-55.2-65.8v-88.6c0-48,13.7-65.8,55.2-65.8s55.2,17.7,55.2,65.8v88.6h0ZM254.5,197.3c0,11.4,4.6,16,14.6,16s14.6-4.6,14.6-16v-106.7c0-12.6-4.6-17.4-14.6-17.4s-14.6,4.9-14.6,17.4v106.7h0Z"/>
  <path class="st0" d="M281.4,331.8c-18.8,10.6-33.1,12.1-74.1,12.1h-71.7c-41,0-55.3-1.5-74.1-12.1l-10.9-6.1c-6.4-3.6-8.2-6.7-8.2-14.9v-22.8c0-4,1.5-5.5,4.6-5.5s4.2,1.2,7.3,2.4l6.1,2.7c26.1,11.9,31.9,14.3,75.3,14.3h71.7c43.4,0,49.2-2.4,75.3-14.3l6.1-2.7c3-1.2,5.5-2.4,7.3-2.4,3,0,4.6,1.5,4.6,5.5v22.8c0,8.2-1.8,11.2-8.2,14.9l-10.9,6.1h0Z"/>
</svg>
