<?xml version="1.0" encoding="UTF-8"?>
<svg id="Lager_1" data-name="Lager 1" xmlns="http://www.w3.org/2000/svg" viewBox="0 0 300.54 240.59">
  <defs>
    <style>
      .cls-1 {
        fill: #fff;
      }
    </style>
  </defs>
  <path class="cls-1" d="M109.26,164.16c0,47.84-13.59,65.1-54.63,65.1S0,211.99,0,164.16v-87.75C0,28.86,13.59,11.31,54.63,11.31s54.63,17.55,54.63,65.1v87.75h0ZM40.2,173.79c0,11.32,4.53,15.85,14.44,15.85s14.44-4.53,14.44-15.85v-105.58c0-12.45-4.53-17.27-14.44-17.27s-14.44,4.81-14.44,17.27v105.58ZM169.88,10.47v219.65c0,8.21-2.26,10.47-10.47,10.47h-18.12c-8.21,0-10.47-2.26-10.47-10.47V10.47c0-8.21,2.26-10.47,10.47-10.47h18.12c8.21,0,10.47,2.26,10.47,10.47ZM300.54,164.16c0,47.84-13.59,65.1-54.63,65.1s-54.63-17.27-54.63-65.1v-87.75c0-47.55,13.59-65.1,54.63-65.1s54.63,17.55,54.63,65.1v87.75h0ZM231.48,173.79c0,11.32,4.53,15.85,14.44,15.85s14.44-4.53,14.44-15.85v-105.58c0-12.45-4.53-17.27-14.44-17.27s-14.44,4.81-14.44,17.27v105.58h0Z"/>
</svg>